<svg width="306" height="213" viewBox="0 0 306 213" fill="none" xmlns="http://www.w3.org/2000/svg">
<path d="M303.46 27.2251L224.326 107.441C224.186 107.573 224.076 107.733 224 107.909C223.924 108.086 223.885 108.276 223.885 108.468C223.885 108.66 223.924 108.85 224 109.026C224.076 109.203 224.186 109.362 224.326 109.495L279.849 168.32C281.178 169.653 282.081 171.348 282.446 173.191C282.811 175.034 282.622 176.944 281.902 178.68C281.181 180.416 279.963 181.902 278.398 182.95C276.833 183.999 274.993 184.564 273.107 184.574C270.57 184.568 268.137 183.565 266.339 181.781L211.106 123.167C210.824 122.891 210.444 122.736 210.048 122.736C209.652 122.736 209.272 122.891 208.99 123.167L195.532 136.708C190.022 142.322 183.441 146.783 176.177 149.827C168.912 152.872 161.11 154.439 153.228 154.437C145.198 154.4 137.255 152.769 129.865 149.639C122.474 146.509 115.784 141.943 110.184 136.207L97.2551 123.036C96.9731 122.759 96.5932 122.604 96.1974 122.604C95.8016 122.604 95.4218 122.759 95.1399 123.036L40.0389 181.518C39.1524 182.403 38.0994 183.105 36.9402 183.584C35.781 184.063 34.5385 184.31 33.2835 184.31C32.0286 184.31 30.7861 184.063 29.6269 183.584C28.4677 183.105 27.4147 182.403 26.5281 181.518C25.6368 180.636 24.9293 179.588 24.4466 178.433C23.9638 177.277 23.7154 176.039 23.7154 174.787C23.7154 173.536 23.9638 172.297 24.4466 171.142C24.9293 169.987 25.6368 168.938 26.5281 168.057L81.8405 109.364C82.0863 109.077 82.2214 108.713 82.2214 108.336C82.2214 107.959 82.0863 107.595 81.8405 107.309L2.70571 27.0934C2.50232 26.8896 2.24268 26.7507 1.95983 26.6943C1.67698 26.6379 1.38371 26.6665 1.11728 26.7766C0.850846 26.8868 0.623253 27.0734 0.463543 27.3127C0.303833 27.552 0.2192 27.8334 0.220348 28.1208V188.631C0.241258 194.835 2.72438 200.78 7.12792 205.168C11.5315 209.555 17.498 212.029 23.7255 212.05H282.493C288.721 212.029 294.688 209.555 299.091 205.168C303.495 200.78 305.978 194.835 305.999 188.631V28.2525C306.012 27.9538 305.932 27.6582 305.77 27.4066C305.608 27.1549 305.371 26.9594 305.093 26.8469C304.815 26.7343 304.509 26.7104 304.217 26.7781C303.924 26.8458 303.66 27.0019 303.46 27.2251V27.2251Z" fill="#EBEBEB" fill-opacity="0.89"/>
<path d="M151.129 135.273C156.474 135.326 161.775 134.297 166.718 132.248C171.66 130.199 176.143 127.172 179.899 123.346L294.744 5.75089C290.667 2.35371 285.547 0.48079 280.254 0.450216H22.2147C16.9186 0.467584 11.7942 2.34207 7.72406 5.75089L122.595 123.346C126.318 127.15 130.762 130.166 135.662 132.214C140.563 134.263 145.822 135.303 151.129 135.273V135.273Z" fill="#EBEBEB" fill-opacity="0.89"/>
</svg>
